<svg xmlns="http://www.w3.org/2000/svg" width="926" height="665" viewBox="0 0 926 665" fill="none"><rect width="926" height="665" fill="#303030"></rect><path d="M286.106 325.922C281.831 321.734 276.89 317.938 271.352 314.602C263.682 309.984 253.869 307.636 242.188 307.636C233.02 307.636 224.117 309.378 215.723 312.812C207.299 316.255 199.776 321.451 193.358 328.25C186.969 335.02 181.754 343.405 177.87 353.179C173.976 362.953 172 374.331 172 386.981V387.539C172 400.199 173.976 411.567 177.86 421.341C181.744 431.125 187.008 439.519 193.495 446.279C199.991 453.069 207.563 458.255 215.987 461.708C224.381 465.142 233.196 466.884 242.178 466.884C253.683 466.884 263.408 464.487 271.088 459.771C276.665 456.337 281.694 452.159 286.096 447.297V464.105H333.185V256.556H286.096V325.922H286.106ZM283.905 370.946C285.734 375.769 286.664 381.16 286.664 386.991V387.549C286.664 393.38 285.734 398.77 283.905 403.594C282.075 408.407 279.62 412.575 276.596 415.97C273.603 419.326 270.051 421.948 266.04 423.748C262.029 425.548 257.655 426.468 253.028 426.468C248.4 426.468 244.017 425.558 240.006 423.748C235.975 421.938 232.375 419.306 229.283 415.941C226.182 412.555 223.677 408.397 221.857 403.594C220.028 398.77 219.098 393.38 219.098 387.549V386.991C219.098 380.994 220.028 375.554 221.847 370.819C223.667 366.103 226.172 361.984 229.283 358.589C232.375 355.214 235.975 352.592 240.006 350.782C244.017 348.972 248.4 348.062 253.018 348.062C257.636 348.062 262.019 348.982 266.03 350.782C270.051 352.592 273.603 355.204 276.587 358.56C279.62 361.964 282.075 366.122 283.905 370.936V370.946Z" fill="#EFEBE4"></path><path d="M443.189 307.646C437.602 307.646 432.505 308.34 428.034 309.71C423.573 311.08 419.454 312.958 415.775 315.297C412.116 317.625 408.751 320.325 405.776 323.319C404.495 324.611 403.252 325.941 402.049 327.301V310.415H354.96V464.115H402.049V378.861C402.049 369.576 404.211 362.542 408.477 357.953C412.752 353.355 418.485 351.114 425.98 351.114C433.474 351.114 439.021 353.335 443.023 357.894C447.044 362.483 449.079 369.537 449.079 378.851V464.105H496.167V365.32C496.167 347.573 491.52 333.386 482.353 323.153C473.117 312.851 459.938 307.626 443.189 307.626V307.646Z" fill="#EFEBE4"></path><path d="M625.675 409.405L623.934 411.019C618.924 415.676 613.808 419.433 608.74 422.182C603.858 424.843 598.036 426.184 591.442 426.184C586.081 426.184 581.189 425.186 576.914 423.209C572.619 421.233 568.872 418.494 565.77 415.05C562.669 411.606 560.262 407.497 558.628 402.82C556.975 398.115 556.133 392.968 556.133 387.529V386.971C556.133 381.717 556.975 376.718 558.628 372.11C560.272 367.521 562.639 363.441 565.663 359.988C568.666 356.554 572.237 353.805 576.278 351.828C580.269 349.872 584.819 348.883 589.779 348.883C596.882 348.883 602.87 350.263 607.566 352.993C612.438 355.83 617.251 359.704 621.889 364.518L623.679 366.377L652.786 335.079L651.279 333.416C644.059 325.442 635.586 319.083 626.086 314.524C616.537 309.945 604.415 307.616 590.043 307.616C578.293 307.616 567.375 309.739 557.572 313.917C547.778 318.104 539.247 323.886 532.212 331.117C525.178 338.347 519.582 346.917 515.6 356.603C511.608 366.298 509.583 376.698 509.583 387.519V388.077C509.583 398.907 511.608 409.258 515.6 418.866C519.592 428.463 525.178 436.946 532.222 444.078C539.266 451.22 547.798 456.953 557.572 461.131C567.365 465.318 578.107 467.441 589.486 467.441C604.631 467.441 617.173 464.77 626.761 459.507C636.212 454.312 644.743 447.551 652.101 439.431L653.656 437.719L625.656 409.395L625.675 409.405Z" fill="#EFEBE4"></path><path d="M692.988 156H589.986V259.002H692.988V156Z" fill="#00ABFF"></path><path d="M692.988 156H747.424C774.231 156 795.999 177.768 795.999 204.576V259.011H692.998V156H692.988Z" fill="#0C70F2"></path><path d="M795.99 259.002H692.988V362.004H795.99V259.002Z" fill="#00D7EE"></path></svg>